<?xml version="1.0" encoding="UTF-8" standalone="no"?>
<svg
   xmlns:dc="http://purl.org/dc/elements/1.1/"
   xmlns:cc="http://creativecommons.org/ns#"
   xmlns:rdf="http://www.w3.org/1999/02/22-rdf-syntax-ns#"
   xmlns:svg="http://www.w3.org/2000/svg"
   xmlns="http://www.w3.org/2000/svg"
   id="svg897"
   version="1.2"
   viewBox="0 0 841.89 1190.55"
   height="1190.55pt"
   width="841.89pt">
  <metadata
     id="metadata903">
    <rdf:RDF>
      <cc:Work
         rdf:about="">
        <dc:format>image/svg+xml</dc:format>
        <dc:type
           rdf:resource="http://purl.org/dc/dcmitype/StillImage" />
        <dc:title></dc:title>
      </cc:Work>
    </rdf:RDF>
  </metadata>
  <defs
     id="defs901" />
  <g
     id="surface3450">
    <path
       id="path834"
       d="M 125.035156 543.953125 C 129.167969 542.777344 127.730469 539.117188 128.121094 536.496094 C 133.785156 498.492188 146.40625 462.988281 165.539062 429.679688 C 168.777344 424.042969 170.761719 424.597656 174.824219 428.59375 C 182.804688 436.445312 191.039062 444.082031 199.613281 451.277344 C 203.980469 454.945312 204.417969 457.679688 201.75 462.871094 C 164.648438 535.144531 160.679688 609.523438 194.667969 683.195312 C 235.300781 771.269531 305.582031 822.152344 402.582031 830.859375 C 532.777344 842.539062 646.792969 755.335938 671.691406 627.199219 C 682.636719 570.878906 674.355469 516.804688 648.207031 465.664062 C 645.726562 460.816406 645.15625 458.011719 650.027344 454.210938 C 658.84375 447.328125 667.308594 439.894531 675.203125 431.972656 C 680.550781 426.613281 682.441406 428.804688 685.371094 434.058594 C 705.324219 469.855469 717.277344 508.148438 721.925781 548.800781 C 722.121094 550.53125 721.234375 552.761719 723.625 553.792969 L 723.625 609.550781 C 720.402344 614.8125 720.945312 620.871094 720.015625 626.613281 C 699.152344 755.214844 601.417969 853.746094 473.210938 875.667969 C 465.921875 876.914062 458.117188 876.054688 451.390625 880.148438 L 395.628906 880.148438 C 388.988281 875.734375 381.105469 876.6875 373.820312 875.503906 C 247.289062 854.984375 145.03125 750.066406 127.976562 623.011719 C 127.644531 620.550781 128.539062 617.320312 125.035156 616.113281 Z M 125.035156 543.953125 "
       style=" stroke:none;fill-rule:nonzero;fill:rgb(93.605042%,17.378235%,26.657104%);fill-opacity:1;" />
    <path
       id="path836"
       d="M 451.390625 281.558594 C 459.769531 284.921875 468.816406 284.511719 477.507812 286.121094 C 514.421875 292.953125 548.851562 306.050781 580.929688 325.566406 C 586.089844 328.707031 586.542969 330.597656 582.203125 334.875 C 574.238281 342.734375 566.570312 350.929688 559.289062 359.421875 C 555.5625 363.761719 552.816406 364.140625 547.679688 361.324219 C 480.488281 324.480469 410.570312 318.828125 338.195312 343.898438 C 326.320312 348.011719 314.808594 353.097656 303.976562 359.484375 C 299.546875 362.097656 296.625 362.269531 292.828125 358.214844 C 285.179688 350.054688 277.167969 342.183594 268.800781 334.761719 C 263.644531 330.1875 263.085938 328.011719 269.722656 324.101562 C 304.257812 303.75 341.136719 290.316406 380.828125 284.578125 C 383.199219 284.234375 386.621094 285.5625 387.429688 281.558594 Z M 451.390625 281.558594 "
       style=" stroke:none;fill-rule:nonzero;fill:rgb(93.605042%,17.378235%,26.657104%);fill-opacity:1;" />
    <path
       id="path838"
       d="M 397.609375 622.996094 C 411.617188 622.996094 411.816406 622.847656 415.003906 609.253906 C 417.550781 598.382812 419.980469 587.480469 422.644531 576.636719 C 427.414062 557.203125 427.472656 557.332031 407.5 557.742188 C 402.246094 557.851562 398.246094 559.277344 396.929688 564.65625 C 392.71875 581.847656 388.617188 599.0625 384.640625 616.308594 C 383.648438 620.609375 385.488281 623.160156 390.25 623.007812 C 392.699219 622.929688 395.15625 622.992188 397.609375 622.996094 M 421.769531 528.652344 C 429.957031 528.660156 438.152344 528.457031 446.332031 528.71875 C 454.769531 528.988281 458.8125 534.128906 456.746094 542.308594 C 448.8125 573.765625 440.746094 605.195312 432.5 636.574219 C 429.921875 646.394531 423.648438 651.234375 413.484375 651.402344 C 397.929688 651.65625 382.363281 651.660156 366.808594 651.390625 C 356.34375 651.214844 352.429688 646.078125 355 635.894531 C 362.746094 605.234375 370.640625 574.609375 378.6875 544.023438 C 381.542969 533.183594 387.640625 528.785156 398.839844 528.660156 C 406.480469 528.574219 414.125 528.644531 421.769531 528.652344 "
       style=" stroke:none;fill-rule:nonzero;fill:rgb(93.605042%,17.378235%,26.657104%);fill-opacity:1;" />
    <path
       id="path840"
       d="M 317.988281 650.085938 C 322.96875 644.574219 327.035156 640.203125 330.925781 635.679688 C 331.914062 634.535156 334.851562 632.503906 331.421875 631.496094 C 326.917969 630.175781 328.757812 627.699219 329.328125 625.210938 C 334.007812 604.734375 338.824219 584.289062 343.332031 563.773438 C 346.550781 549.117188 338.945312 539.371094 324.207031 539.28125 C 298.539062 539.121094 272.871094 539.152344 247.203125 539.277344 C 235.992188 539.328125 230.023438 544.023438 227.03125 554.761719 C 219.125 583.136719 211.285156 611.53125 203.484375 639.9375 C 202.882812 642.128906 200.59375 645.035156 203.066406 646.546875 C 205.101562 647.789062 208.34375 647.402344 211.007812 647.191406 C 214.78125 646.894531 214.304688 643.304688 214.972656 640.910156 C 222.507812 613.847656 230.03125 586.777344 237.308594 559.644531 C 238.949219 553.53125 241.808594 550.304688 248.59375 550.367188 C 273.4375 550.585938 298.289062 550.375 323.136719 550.503906 C 331.453125 550.546875 334.066406 553.851562 332.28125 561.789062 C 327.730469 582.011719 323.050781 602.207031 318.335938 622.390625 C 317.863281 624.402344 317.824219 627.894531 315.613281 627.832031 C 305.832031 627.5625 311.894531 633.121094 312.640625 636.011719 C 313.785156 640.429688 315.847656 644.605469 317.988281 650.085938 M 192.191406 653.773438 C 198.046875 630.265625 203.65625 607.539062 209.378906 584.84375 C 212.78125 571.347656 216.164062 557.835938 219.921875 544.433594 C 223.824219 530.535156 226.90625 528.488281 241.171875 528.503906 C 273.421875 528.535156 305.671875 528.511719 337.921875 528.511719 C 340.378906 528.511719 342.839844 528.472656 345.300781 528.53125 C 361.222656 528.925781 363.058594 531.15625 359.175781 546.5 C 350.671875 580.109375 341.921875 613.660156 333.511719 647.292969 C 332.339844 651.992188 330.746094 654.390625 325.433594 653.890625 C 320.015625 653.375 314.492188 653.492188 309.050781 653.855469 C 303.328125 654.234375 301.496094 653.214844 303.273438 646.71875 C 310.175781 621.46875 316.4375 596.039062 322.835938 570.652344 C 325.390625 560.511719 325.03125 560.167969 314.265625 560.160156 C 294.039062 560.144531 273.8125 560.335938 253.59375 560.042969 C 247.898438 559.960938 245.539062 561.804688 244.199219 567.46875 C 237.972656 593.769531 231.105469 619.910156 224.78125 646.1875 C 223.4375 651.761719 221.445312 654.523438 215.09375 653.933594 C 207.808594 653.253906 200.414062 653.773438 192.191406 653.773438 "
       style=" stroke:none;fill-rule:nonzero;fill:rgb(93.605042%,17.378235%,26.657104%);fill-opacity:1;" />
    <path
       id="path842"
       d="M 500.554688 598.035156 C 508.78125 584.546875 513.421875 569.40625 520.242188 555.273438 C 521.546875 552.574219 522.636719 549.769531 523.828125 547.015625 C 532.113281 527.871094 532.109375 528.027344 553.355469 528.53125 C 558.554688 528.65625 559.335938 529.75 557.210938 534.5 C 545.410156 560.894531 533.859375 587.398438 522.222656 613.863281 C 517.5 624.601562 512.609375 635.265625 508.15625 646.113281 C 506.425781 650.328125 504 651.785156 499.507812 651.582031 C 491.609375 651.226562 483.660156 651.167969 475.765625 651.589844 C 470.238281 651.886719 468.753906 650 469.199219 644.597656 C 471.363281 618.210938 473.191406 591.792969 475.164062 565.390625 C 475.917969 555.320312 477.015625 545.269531 477.40625 535.1875 C 477.585938 530.460938 478.621094 528.09375 483.886719 528.574219 C 491.175781 529.242188 500.992188 525.5625 505.148438 530.011719 C 509.179688 534.328125 504.90625 543.796875 504.464844 551.011719 C 503.5 566.753906 499.960938 582.285156 500.65625 598.15625 C 500.378906 598.316406 500.101562 598.476562 499.824219 598.636719 C 500.007812 598.664062 500.308594 598.765625 500.351562 598.703125 C 500.476562 598.515625 500.492188 598.261719 500.554688 598.035156 "
       style=" stroke:none;fill-rule:nonzero;fill:rgb(93.605042%,17.378235%,26.657104%);fill-opacity:1;" />
    <path
       id="path844"
       d="M 597.332031 602.234375 C 586.148438 602.238281 574.964844 602.097656 563.785156 602.300781 C 559.035156 602.390625 557.75 601.367188 558.984375 596.210938 C 564.640625 572.558594 564.460938 572.515625 588.972656 572.515625 C 605.339844 572.515625 621.707031 572.707031 638.066406 572.40625 C 643.527344 572.304688 644.378906 573.851562 643.179688 578.980469 C 637.753906 602.199219 637.894531 602.230469 613.695312 602.230469 C 608.242188 602.230469 602.785156 602.230469 597.332031 602.234375 "
       style=" stroke:none;fill-rule:nonzero;fill:rgb(93.605042%,17.378235%,26.657104%);fill-opacity:1;" />
    <path
       id="path846"
       d="M 586.605469 647.667969 C 575.144531 647.671875 563.683594 647.496094 552.226562 647.75 C 547.195312 647.863281 546.464844 646.421875 547.59375 641.574219 C 553.078125 618.054688 552.921875 618.019531 576.800781 618.019531 C 593.449219 618.019531 610.097656 618.253906 626.734375 617.890625 C 632.441406 617.765625 632.867188 619.53125 631.714844 624.480469 C 626.339844 647.636719 626.46875 647.664062 602.976562 647.664062 C 597.519531 647.664062 592.0625 647.664062 586.605469 647.667969 "
       style=" stroke:none;fill-rule:nonzero;fill:rgb(93.605042%,17.378235%,26.657104%);fill-opacity:1;" />
    <path
       id="path848"
       d="M 261.816406 653.777344 C 246.808594 653.777344 246.851562 653.789062 250.859375 639.152344 C 255.96875 620.511719 261.109375 601.878906 265.96875 583.175781 C 267.113281 578.765625 268.9375 576.726562 273.75 577.097656 C 280.777344 577.640625 290.730469 574.890625 294.132812 578.515625 C 297.921875 582.558594 292.3125 591.488281 290.675781 598.242188 C 286.894531 613.851562 282.394531 629.296875 278.808594 644.949219 C 277.296875 651.542969 274.820312 655.214844 267.53125 653.828125 C 265.6875 653.476562 263.722656 653.777344 261.816406 653.777344 "
       style=" stroke:none;fill-rule:nonzero;fill:rgb(93.605042%,17.378235%,26.657104%);fill-opacity:1;" />
    <path
       id="path850"
       d="M 608.804688 557.824219 C 597.902344 557.824219 586.988281 557.578125 576.09375 557.921875 C 570.238281 558.105469 569.472656 556.410156 570.878906 550.875 C 576.527344 528.695312 576.320312 528.644531 599.464844 528.644531 C 615.824219 528.644531 632.183594 528.84375 648.53125 528.535156 C 654.113281 528.429688 656.191406 529.160156 654.574219 535.558594 C 648.972656 557.765625 649.199219 557.824219 625.976562 557.824219 C 620.253906 557.824219 614.527344 557.824219 608.804688 557.824219 "
       style=" stroke:none;fill-rule:nonzero;fill:rgb(93.605042%,17.378235%,26.657104%);fill-opacity:1;" />
    <path
       id="path852"
       d="M 280.117188 405.617188 C 280.328125 413.050781 272.332031 418.058594 265.742188 414.433594 C 263.652344 413.28125 261.910156 411.402344 260.207031 409.664062 C 242.636719 391.753906 225.101562 373.804688 207.566406 355.863281 C 206.042969 354.304688 204.523438 352.734375 203.066406 351.113281 C 198.804688 346.367188 198.027344 341.179688 202.800781 336.625 C 207.5625 332.082031 212.777344 332.972656 217.265625 337.527344 C 228.367188 348.796875 239.390625 360.136719 250.445312 371.453125 C 258.828125 380.035156 267.1875 388.640625 275.613281 397.1875 C 277.96875 399.578125 279.960938 402.085938 280.117188 405.617188 "
       style=" stroke:none;fill-rule:nonzero;fill:rgb(93.605042%,17.378235%,26.657104%);fill-opacity:1;" />
    <path
       id="path854"
       d="M 586.96875 416.214844 C 583.058594 416.289062 580.058594 414.527344 578.203125 411.214844 C 576.34375 407.898438 576.300781 404.304688 578.59375 401.160156 C 580.347656 398.75 582.5 396.613281 584.589844 394.472656 C 602.488281 376.121094 620.378906 357.757812 638.355469 339.484375 C 644.546875 333.191406 650.175781 332.484375 654.53125 337.472656 C 659.605469 343.28125 657.296875 348.355469 652.542969 353.199219 C 633.625 372.464844 614.792969 391.8125 595.945312 411.140625 C 593.4375 413.714844 590.90625 416.1875 586.96875 416.214844 "
       style=" stroke:none;fill-rule:nonzero;fill:rgb(93.605042%,17.378235%,26.657104%);fill-opacity:1;" />
    <path
       id="path856"
       d="M 236.847656 447.992188 C 236.582031 453.417969 234.691406 456.320312 231.203125 457.917969 C 226.6875 459.988281 222.703125 458.773438 219.308594 455.304688 C 208.234375 444.003906 197.152344 432.710938 186.09375 421.394531 C 177.515625 412.613281 168.976562 403.789062 160.410156 394.996094 C 155.777344 390.242188 154.300781 385.011719 159.449219 379.945312 C 164.605469 374.871094 169.828125 376.4375 174.464844 381.183594 C 194.101562 401.285156 213.722656 421.398438 233.359375 441.496094 C 235.546875 443.738281 236.960938 446.273438 236.847656 447.992188 "
       style=" stroke:none;fill-rule:nonzero;fill:rgb(93.605042%,17.378235%,26.657104%);fill-opacity:1;" />
    <path
       id="path858"
       d="M 565.652344 394.9375 C 561.726562 395.019531 558.71875 393.242188 556.914062 389.90625 C 554.941406 386.257812 555.09375 382.429688 557.867188 379.195312 C 560.703125 375.890625 563.820312 372.816406 566.863281 369.695312 C 583.621094 352.511719 600.417969 335.371094 617.144531 318.160156 C 621.820312 313.351562 626.792969 310.65625 632.789062 315.722656 C 637.875 320.019531 637.300781 325.691406 631.195312 331.976562 C 612.382812 351.34375 593.496094 370.636719 574.648438 389.972656 C 572.136719 392.542969 569.625 395.042969 565.652344 394.9375 "
       style=" stroke:none;fill-rule:nonzero;fill:rgb(93.605042%,17.378235%,26.657104%);fill-opacity:1;" />
    <path
       id="path860"
       d="M 258.339844 425.75 C 257.96875 432.265625 255.859375 435.257812 251.941406 436.785156 C 247.625 438.46875 243.949219 437.128906 240.808594 433.925781 C 229.738281 422.625 218.648438 411.339844 207.589844 400.023438 C 199.011719 391.246094 190.46875 382.429688 181.914062 373.632812 C 177.324219 368.910156 175.671875 363.714844 180.835938 358.582031 C 185.972656 353.472656 191.191406 354.976562 195.835938 359.730469 C 215.476562 379.824219 235.097656 399.933594 254.726562 420.03125 C 256.902344 422.257812 258.421875 424.757812 258.339844 425.75 "
       style=" stroke:none;fill-rule:nonzero;fill:rgb(93.605042%,17.378235%,26.657104%);fill-opacity:1;" />
    <path
       id="path862"
       d="M 301.355469 384.25 C 301.664062 391.683594 293.730469 396.808594 287.109375 393.257812 C 285.007812 392.128906 283.242188 390.269531 281.539062 388.53125 C 263.210938 369.832031 244.925781 351.089844 226.628906 332.359375 C 225.863281 331.578125 225.085938 330.8125 224.359375 330 C 220.160156 325.269531 219.210938 320.101562 223.949219 315.472656 C 228.65625 310.878906 233.90625 311.625 238.417969 316.179688 C 248.015625 325.863281 257.496094 335.671875 267.027344 345.425781 C 276.746094 355.375 286.460938 365.335938 296.199219 375.265625 C 298.710938 377.824219 301.195312 380.355469 301.355469 384.25 "
       style=" stroke:none;fill-rule:nonzero;fill:rgb(93.605042%,17.378235%,26.657104%);fill-opacity:1;" />
    <path
       id="path864"
       d="M 669.03125 356.183594 C 676.128906 355.914062 681.140625 363.203125 678.289062 369.722656 C 677.75 370.949219 676.996094 372.164062 676.066406 373.117188 C 655.910156 393.820312 635.804688 414.574219 615.449219 435.078125 C 611.261719 439.292969 605.867188 439.3125 601.578125 434.929688 C 597.257812 430.511719 597.664062 425.375 601.84375 421.058594 C 621.757812 400.496094 641.804688 380.070312 661.800781 359.589844 C 663.792969 357.546875 666.207031 356.441406 669.03125 356.183594 "
       style=" stroke:none;fill-rule:nonzero;fill:rgb(93.605042%,17.378235%,26.657104%);fill-opacity:1;" />
    <path
       id="path866"
       d="M 630.316406 459.398438 C 626.484375 459.375 623.394531 457.902344 621.480469 454.511719 C 619.582031 451.148438 619.5625 447.617188 621.8125 444.472656 C 623.542969 442.054688 625.707031 439.933594 627.792969 437.789062 C 645.09375 420.019531 662.421875 402.273438 679.742188 384.519531 C 680.121094 384.132812 680.496094 383.734375 680.882812 383.351562 C 687.34375 376.929688 693.304688 375.976562 697.828125 380.640625 C 702.25 385.195312 701.484375 390.535156 695.242188 396.953125 C 677.949219 414.730469 660.597656 432.453125 643.265625 450.195312 C 641.171875 452.339844 639.074219 454.480469 636.945312 456.59375 C 635.117188 458.402344 632.839844 459.210938 630.316406 459.398438 "
       style=" stroke:none;fill-rule:nonzero;fill:rgb(93.605042%,17.378235%,26.657104%);fill-opacity:1;" />
    <path
       id="path868"
       d="M 472.046875 691.34375 C 479.871094 692.164062 477.945312 685.8125 478.984375 682.015625 C 479.429688 680.386719 482.089844 676.933594 477.511719 676.554688 C 474.519531 676.304688 470.738281 675.199219 469.785156 680.027344 C 469.367188 682.144531 468.78125 684.234375 468.144531 686.292969 C 466.964844 690.125 467.972656 692.070312 472.046875 691.34375 M 476.203125 665.824219 C 478.660156 665.835938 481.121094 665.75 483.578125 665.855469 C 487.867188 666.03125 490.363281 668.058594 489.519531 672.625 C 487.589844 683.074219 485.441406 693.488281 483.507812 703.9375 C 482.816406 707.660156 480.320312 707.742188 477.410156 707.59375 C 474.039062 707.417969 474.242188 705.222656 474.742188 702.984375 C 475.1875 700.980469 475.722656 698.890625 472.753906 698.941406 C 469.984375 698.984375 466.636719 697.324219 464.660156 700.75 C 463.992188 701.90625 463.726562 703.308594 463.332031 704.613281 C 461.894531 709.359375 457.929688 707.71875 455.105469 707.339844 C 451.15625 706.8125 453.09375 703.597656 453.644531 701.53125 C 455.742188 693.636719 458.097656 685.808594 460.292969 677.933594 C 463.667969 665.820312 463.648438 665.816406 476.203125 665.824219 "
       style=" stroke:none;fill-rule:nonzero;fill:rgb(14.221191%,11.933899%,13.618469%);fill-opacity:1;" />
    <path
       id="path870"
       d="M 559.992188 690.335938 C 569.179688 694.222656 571.507812 689.039062 572.222656 681.949219 C 572.425781 679.941406 574.617188 676.832031 570.183594 676.464844 C 558.710938 675.515625 563.578125 685.808594 559.992188 690.335938 M 582.597656 672.929688 C 580.664062 682.785156 578.511719 693.472656 576.503906 704.183594 C 575.882812 707.507812 573.660156 707.585938 571.046875 707.628906 C 567.953125 707.675781 567.398438 706.09375 567.765625 703.46875 C 568.054688 701.417969 569 698.699219 565.347656 698.839844 C 562.335938 698.953125 558.542969 697.351562 557.140625 701.980469 C 556.605469 703.75 556.863281 706.109375 554.878906 707.011719 C 552.34375 708.160156 549.28125 708.28125 546.964844 707.128906 C 544.386719 705.847656 546.273438 703.140625 546.78125 701.230469 C 549.375 691.503906 552.269531 681.859375 554.871094 672.132812 C 556.019531 667.84375 558.277344 665.574219 562.933594 665.777344 C 567.5625 665.984375 572.214844 665.730469 576.847656 665.898438 C 580.664062 666.035156 583.035156 667.84375 582.597656 672.929688 "
       style=" stroke:none;fill-rule:nonzero;fill:rgb(14.221191%,11.933899%,13.618469%);fill-opacity:1;" />
    <path
       id="path872"
       d="M 384.503906 665.90625 C 387.230469 665.90625 389.972656 665.722656 392.683594 665.949219 C 396.246094 666.242188 398.308594 668.316406 397.664062 671.96875 C 395.773438 682.699219 393.648438 693.386719 391.667969 704.097656 C 390.972656 707.847656 388.265625 707.808594 385.445312 707.554688 C 381.277344 707.179688 382.757812 704.441406 383.226562 702.125 C 384.578125 695.445312 386.058594 688.789062 387.167969 682.070312 C 387.484375 680.152344 389.652344 676.820312 385.226562 676.53125 C 382.121094 676.324219 378.679688 675.480469 377.703125 680.40625 C 376.273438 687.609375 373.945312 694.644531 372.578125 701.859375 C 371.554688 707.285156 368.238281 708.511719 363.804688 707.480469 C 358.066406 706.152344 361.9375 702.363281 362.539062 699.8125 C 364.289062 692.394531 366.355469 685.046875 368.453125 677.71875 C 371.863281 665.800781 371.914062 665.8125 384.503906 665.90625 "
       style=" stroke:none;fill-rule:nonzero;fill:rgb(14.221191%,11.933899%,13.618469%);fill-opacity:1;" />
    <path
       id="path874"
       d="M 282.257812 426.898438 C 282.117188 423.9375 283.921875 421.585938 286.074219 419.429688 C 292.984375 412.503906 299.886719 405.574219 306.839844 398.691406 C 311.582031 393.996094 316.855469 392.824219 321.832031 397.921875 C 326.488281 402.691406 325.445312 407.855469 321.035156 412.34375 C 313.796875 419.707031 306.480469 426.996094 299.082031 434.199219 C 295.910156 437.292969 292.09375 438.375 287.875 436.339844 C 284.105469 434.519531 282.121094 431.5 282.257812 426.898438 "
       style=" stroke:none;fill-rule:nonzero;fill:rgb(93.605042%,17.378235%,26.657104%);fill-opacity:1;" />
    <path
       id="path876"
       d="M 574.738281 427.261719 C 574.75 431.921875 573.019531 434.949219 569.566406 436.652344 C 565.871094 438.476562 561.867188 438.441406 558.828125 435.527344 C 550.554688 427.585938 542.324219 419.574219 534.539062 411.15625 C 530.976562 407.304688 531.441406 402.429688 535.074219 398.511719 C 538.40625 394.917969 543.019531 393.609375 546.875 396.785156 C 556.566406 404.773438 565.277344 413.859375 573.535156 423.328125 C 574.5 424.433594 574.492188 426.386719 574.738281 427.261719 "
       style=" stroke:none;fill-rule:nonzero;fill:rgb(93.605042%,17.378235%,26.657104%);fill-opacity:1;" />
    <path
       id="path878"
       d="M 551.234375 665.816406 C 550.003906 675.316406 544.007812 674.828125 537.804688 674.808594 C 534.238281 674.796875 528.910156 672.523438 527.3125 676.421875 C 524.773438 682.609375 524.015625 689.5625 522.835938 696.25 C 522.535156 697.957031 524.585938 697.890625 525.886719 697.910156 C 529.160156 697.953125 532.476562 697.589844 535.679688 698.054688 C 537.742188 698.355469 542.023438 695.660156 541.472656 700.699219 C 541.132812 703.839844 540.949219 707.910156 535.558594 707.667969 C 528.214844 707.335938 520.84375 707.441406 513.492188 707.640625 C 509.558594 707.75 508 706.753906 509.136719 702.515625 C 511.957031 692.007812 514.53125 681.4375 517.132812 670.875 C 517.917969 667.683594 519.078125 665.609375 523.0625 665.730469 C 532.28125 666.007812 541.511719 665.816406 551.234375 665.816406 "
       style=" stroke:none;fill-rule:nonzero;fill:rgb(14.221191%,11.933899%,13.618469%);fill-opacity:1;" />
    <path
       id="path880"
       d="M 313.230469 665.816406 C 326.726562 665.816406 326.191406 665.707031 323.480469 678.898438 C 321.78125 687.1875 318.570312 691.792969 309.625 689.921875 C 301.292969 688.183594 300.15625 693.746094 299.546875 699.699219 C 299.027344 704.820312 297.882812 708.464844 291.273438 707.761719 C 287.460938 707.355469 286.488281 706.21875 287.375 702.8125 C 288.675781 697.816406 290.058594 692.835938 291.199219 687.804688 C 291.976562 684.378906 293.613281 682.78125 297.367188 683.082031 C 301.421875 683.410156 305.527344 683.230469 309.601562 683.089844 C 312.808594 682.976562 313.613281 680.433594 313.59375 677.957031 C 313.570312 674.933594 310.90625 676.058594 309.234375 675.886719 C 307.621094 675.722656 305.898438 676.15625 304.359375 675.78125 C 302.222656 675.257812 298.050781 677.890625 298.4375 673.160156 C 298.695312 669.980469 299.109375 665.714844 304.253906 665.804688 C 307.246094 665.859375 310.238281 665.816406 313.230469 665.816406 "
       style=" stroke:none;fill-rule:nonzero;fill:rgb(14.221191%,11.933899%,13.618469%);fill-opacity:1;" />
    <path
       id="path882"
       d="M 609.484375 665.816406 C 622.847656 665.816406 622.351562 665.710938 619.449219 679.230469 C 617.761719 687.101562 614.839844 691.585938 606.195312 689.921875 C 598.558594 688.453125 596.230469 692.601562 595.617188 699.300781 C 595.34375 702.269531 595.890625 706.433594 591.769531 707.363281 C 589.25 707.929688 585.941406 707.996094 583.851562 706.789062 C 581.085938 705.1875 584.390625 702.488281 584.25 700.171875 C 584.183594 699.152344 584.832031 698.09375 585.117188 697.042969 C 588.726562 683.695312 588.722656 683.53125 602.886719 683.265625 C 606.753906 683.195312 609.855469 682.21875 609.820312 678.355469 C 609.785156 673.949219 605.667969 676.585938 603.433594 675.863281 C 603.1875 675.78125 602.859375 675.9375 602.625 675.839844 C 599.875 674.691406 594.542969 678.589844 594.4375 672.957031 C 594.339844 667.796875 597.816406 664.632812 603.761719 665.761719 C 605.605469 666.109375 607.574219 665.816406 609.484375 665.816406 "
       style=" stroke:none;fill-rule:nonzero;fill:rgb(14.221191%,11.933899%,13.618469%);fill-opacity:1;" />
    <path
       id="path884"
       d="M 412.855469 703.0625 C 408.917969 703.472656 407.285156 702.59375 408.300781 698.574219 C 410.03125 691.746094 411.308594 684.804688 412.75 677.910156 C 413.097656 676.25 414.757812 673.984375 411.398438 673.664062 C 409.152344 673.449219 407.664062 673.167969 408.546875 670.339844 C 409.328125 667.835938 410.285156 665.792969 413.402344 665.824219 C 418.5625 665.871094 423.726562 665.742188 428.886719 665.867188 C 430.515625 665.90625 433.316406 664.898438 433.105469 667.917969 C 432.96875 669.871094 432.253906 673.285156 430.152344 673.152344 C 422.894531 672.691406 423.738281 678.558594 422.429688 682.429688 C 420.605469 687.808594 419.445312 693.410156 418.027344 698.925781 C 417.265625 701.875 416.023438 704.128906 412.855469 703.0625 "
       style=" stroke:none;fill-rule:nonzero;fill:rgb(14.221191%,11.933899%,13.618469%);fill-opacity:1;" />
    <path
       id="path886"
       d="M 350.507812 665.824219 C 352.941406 665.8125 355.40625 665.582031 357.800781 665.882812 C 360.03125 666.164062 364.160156 664.21875 363.714844 668.613281 C 363.355469 672.125 363.5 677.109375 357.058594 676.539062 C 351.421875 676.042969 345.707031 676.578125 340.035156 676.363281 C 338.066406 676.289062 334.300781 677.980469 334.945312 673.632812 C 335.40625 670.539062 334.734375 666.039062 339.964844 665.855469 C 343.476562 665.730469 346.992188 665.832031 350.507812 665.824219 "
       style=" stroke:none;fill-rule:nonzero;fill:rgb(14.221191%,11.933899%,13.618469%);fill-opacity:1;" />
    <path
       id="path888"
       d="M 339.421875 707.59375 C 337.238281 707.585938 335.007812 707.863281 332.882812 707.507812 C 330.675781 707.140625 326.425781 709.421875 326.984375 704.675781 C 327.367188 701.421875 327.019531 696.609375 333.007812 696.898438 C 339 697.191406 345.023438 696.855469 351.023438 697.023438 C 352.847656 697.074219 356.460938 695.925781 355.699219 699.371094 C 355.054688 702.300781 356.207031 707.242188 350.886719 707.5625 C 347.078125 707.789062 343.242188 707.605469 339.421875 707.59375 "
       style=" stroke:none;fill-rule:nonzero;fill:rgb(14.221191%,11.933899%,13.618469%);fill-opacity:1;" />
    <path
       id="path890"
       d="M 331.0625 691.605469 C 330.449219 683.523438 333.242188 679.894531 341.308594 681.046875 C 345.570312 681.660156 350.003906 680.96875 354.335938 681.238281 C 356.308594 681.363281 360.089844 679.585938 359.574219 683.863281 C 359.207031 686.949219 359.828125 691.523438 354.535156 691.585938 C 346.691406 691.675781 338.839844 691.605469 331.0625 691.605469 "
       style=" stroke:none;fill-rule:nonzero;fill:rgb(14.221191%,11.933899%,13.618469%);fill-opacity:1;" />
    <path
       id="path892"
       d="M 607.769531 707.65625 C 604.273438 708.054688 604.046875 704.761719 603.332031 701.828125 C 602.640625 699.007812 604.378906 698.699219 606.464844 698.449219 C 610.800781 697.929688 611.28125 701.078125 611.867188 704.058594 C 612.359375 706.578125 610.902344 707.496094 607.769531 707.65625 "
       style=" stroke:none;fill-rule:nonzero;fill:rgb(14.221191%,11.933899%,13.618469%);fill-opacity:1;" />
    <path
       id="path894"
       d="M 315.40625 703.140625 C 315.972656 706.25 315.179688 707.601562 312.148438 707.640625 C 308.242188 707.6875 308.027344 704.675781 307.273438 702.21875 C 306.351562 699.210938 308.1875 698.460938 310.804688 698.429688 C 314.394531 698.386719 315.648438 700.304688 315.40625 703.140625 "
       style=" stroke:none;fill-rule:nonzero;fill:rgb(14.221191%,11.933899%,13.618469%);fill-opacity:1;" />
  </g>
</svg>
