<?xml version="1.0" encoding="UTF-8" standalone="no"?>
<svg
   xmlns:dc="http://purl.org/dc/elements/1.1/"
   xmlns:cc="http://creativecommons.org/ns#"
   xmlns:rdf="http://www.w3.org/1999/02/22-rdf-syntax-ns#"
   xmlns:svg="http://www.w3.org/2000/svg"
   xmlns="http://www.w3.org/2000/svg"
   width="798.12"
   height="798.12"
   viewBox="0 0 598.58999 598.58999"
   version="1.2"
   id="svg897">
  <metadata
     id="metadata903">
    <rdf:RDF>
      <cc:Work
         rdf:about="">
        <dc:format>image/svg+xml</dc:format>
        <dc:type
           rdf:resource="http://purl.org/dc/dcmitype/StillImage" />
        <dc:title></dc:title>
      </cc:Work>
    </rdf:RDF>
  </metadata>
  <defs
     id="defs901" />
  <g
     transform="translate(-125.03509,-281.55852)"
     id="surface3450">
    <path
       style="fill:#ee2b42;fill-opacity:1;fill-rule:nonzero;stroke:none"
       d="m 125.03516,543.95312 c 4.13281,-1.17578 2.69531,-4.83593 3.08593,-7.45703 5.66407,-38.0039 18.28516,-73.50781 37.41797,-106.8164 3.23828,-5.63672 5.22266,-5.08203 9.28516,-1.08594 7.98047,7.85156 16.21484,15.48828 24.78906,22.68359 4.36719,3.66797 4.80469,6.40235 2.13672,11.59375 -37.10156,72.27344 -41.07031,146.65235 -7.08203,220.32422 40.63281,88.07422 110.91406,138.95703 207.91406,147.66406 130.19531,11.67969 244.21094,-75.52343 269.10938,-203.66015 10.94531,-56.32031 2.66406,-110.39453 -23.48438,-161.53516 -2.48047,-4.84765 -3.05078,-7.65234 1.82031,-11.45312 8.81641,-6.88282 17.28125,-14.31641 25.17578,-22.23828 5.34766,-5.35938 7.23829,-3.16797 10.16797,2.08593 19.95313,35.79688 31.90625,74.08985 36.55469,114.74219 0.19531,1.73047 -0.69141,3.96094 1.69922,4.99219 v 55.75781 c -3.22266,5.26172 -2.67969,11.32031 -3.60938,17.0625 -20.86328,128.60156 -118.59765,227.13281 -246.80468,249.05469 -7.28907,1.24609 -15.09375,0.38672 -21.82032,4.48047 h -55.76171 c -6.64063,-4.41407 -14.52344,-3.46094 -21.8086,-4.64453 -126.53125,-20.51954 -228.78906,-125.4375 -245.84375,-252.49219 -0.33203,-2.46094 0.5625,-5.69141 -2.9414,-6.89844 z m 0,0"
       id="path834" />
    <path
       style="fill:#ee2b42;fill-opacity:1;fill-rule:nonzero;stroke:none"
       d="m 451.39062,281.55859 c 8.37891,3.36328 17.42579,2.95313 26.11719,4.5625 36.91406,6.83203 71.34375,19.92969 103.42188,39.44532 5.16015,3.14062 5.61328,5.03125 1.27343,9.30859 -7.96484,7.85937 -15.63281,16.05469 -22.91406,24.54687 -3.72656,4.33985 -6.47265,4.71875 -11.60937,1.90235 -67.19141,-36.84375 -137.10938,-42.4961 -209.48438,-17.42578 -11.875,4.11328 -23.38672,9.19922 -34.21875,15.58593 -4.42969,2.61329 -7.35156,2.78516 -11.14844,-1.26953 -7.64843,-8.16015 -15.66015,-16.03125 -24.02734,-23.45312 -5.15625,-4.57422 -5.71484,-6.75 0.92188,-10.66016 34.53515,-20.35156 71.41406,-33.78515 111.10546,-39.52344 2.3711,-0.34375 5.79297,0.98438 6.60157,-3.01953 z m 0,0"
       id="path836" />
    <path
       style="fill:#ee2b42;fill-opacity:1;fill-rule:nonzero;stroke:none"
       d="m 397.60937,622.99609 c 14.00782,0 14.20704,-0.14843 17.39454,-13.74218 2.54687,-10.8711 4.97656,-21.77344 7.64062,-32.61719 4.76953,-19.4336 4.82813,-19.30469 -15.14453,-18.89453 -5.25391,0.10937 -9.25391,1.53515 -10.57031,6.91406 -4.21094,17.19141 -8.3125,34.40625 -12.28907,51.65234 -0.99218,4.30078 0.84766,6.85157 5.60938,6.69922 2.44922,-0.0781 4.90625,-0.0156 7.35937,-0.0117 m 24.16016,-94.34375 c 8.1875,0.008 16.38281,-0.19531 24.5625,0.0664 8.4375,0.26953 12.48047,5.41016 10.41406,13.58984 -7.93359,31.45703 -16,62.88672 -24.24609,94.26563 -2.57813,9.82031 -8.85156,14.66015 -19.01563,14.82812 -15.55468,0.25391 -31.12109,0.25782 -46.67578,-0.0117 -10.46484,-0.17578 -14.3789,-5.3125 -11.80859,-15.49609 7.74609,-30.66016 15.64062,-61.28516 23.6875,-91.87109 2.85547,-10.83985 8.95312,-15.23828 20.15234,-15.36328 7.64063,-0.0859 15.28516,-0.0156 22.92969,-0.008"
       id="path838" />
    <path
       style="fill:#ee2b42;fill-opacity:1;fill-rule:nonzero;stroke:none"
       d="m 317.98828,650.08594 c 4.98047,-5.51172 9.04688,-9.88282 12.9375,-14.40625 0.98828,-1.14453 3.92578,-3.17578 0.49609,-4.1836 -4.5039,-1.32031 -2.66406,-3.79687 -2.09375,-6.28515 4.67969,-20.47657 9.4961,-40.92188 14.00391,-61.4375 3.21875,-14.65625 -4.38672,-24.40235 -19.125,-24.49219 -25.66797,-0.16016 -51.33594,-0.12891 -77.00391,-0.004 -11.21093,0.0508 -17.17968,4.7461 -20.17187,15.48438 -7.90625,28.375 -15.74609,56.76953 -23.54688,85.17578 -0.60156,2.19141 -2.89062,5.09766 -0.41796,6.60937 2.03515,1.24219 5.27734,0.85547 7.9414,0.64454 3.77344,-0.29688 3.29688,-3.88672 3.96485,-6.28125 7.53515,-27.0625 15.05859,-54.13282 22.33593,-81.26563 1.64063,-6.11328 4.5,-9.33984 11.28516,-9.27734 24.84375,0.21875 49.69531,0.008 74.54297,0.13672 8.3164,0.043 10.92969,3.34765 9.14453,11.28515 -4.55078,20.22266 -9.23047,40.41797 -13.94531,60.60156 -0.47266,2.01172 -0.51172,5.50391 -2.72266,5.44141 -9.78125,-0.26953 -3.71875,5.28906 -2.97266,8.17969 1.14454,4.41797 3.20704,8.59375 5.34766,14.07422 m -125.79687,3.6875 c 5.85546,-23.50782 11.46484,-46.23438 17.1875,-68.92969 3.40234,-13.49609 6.78515,-27.00781 10.54296,-40.41016 3.90235,-13.89843 6.98438,-15.94531 21.25,-15.92968 32.25,0.0312 64.5,0.008 96.75,0.008 2.45704,0 4.91797,-0.0391 7.37891,0.0195 15.92188,0.39453 17.75781,2.625 13.875,17.96875 -8.50391,33.60937 -17.25391,67.16016 -25.66406,100.79297 -1.17188,4.69922 -2.76563,7.09765 -8.07813,6.59765 -5.41797,-0.51562 -10.9414,-0.39843 -16.38281,-0.0352 -5.72266,0.3789 -7.55469,-0.64063 -5.77734,-7.13672 6.90234,-25.25 13.16406,-50.67969 19.5625,-76.06641 2.55468,-10.14062 2.19531,-10.48437 -8.57032,-10.49218 -20.22656,-0.0156 -40.45312,0.17578 -60.67187,-0.11719 -5.69531,-0.082 -8.05469,1.76172 -9.39453,7.42578 -6.22656,26.30078 -13.09375,52.44141 -19.41797,78.71875 -1.34375,5.57422 -3.33594,8.33594 -9.6875,7.74609 -7.28516,-0.67968 -14.67969,-0.16015 -22.90234,-0.16015"
       id="path840" />
    <path
       style="fill:#ee2b42;fill-opacity:1;fill-rule:nonzero;stroke:none"
       d="m 500.55469,598.03516 c 8.22656,-13.48829 12.86718,-28.62891 19.6875,-42.76172 1.30468,-2.69922 2.39453,-5.50391 3.58593,-8.25782 8.28516,-19.14453 8.28125,-18.98828 29.52735,-18.48437 5.19922,0.125 5.98047,1.21875 3.85547,5.96875 -11.80078,26.39453 -23.35157,52.89844 -34.98828,79.36328 -4.72266,10.73828 -9.61329,21.40234 -14.06641,32.25 -1.73047,4.21484 -4.15625,5.67188 -8.64844,5.46875 -7.89844,-0.35547 -15.84765,-0.41406 -23.74219,0.008 -5.52734,0.29688 -7.01171,-1.58984 -6.5664,-6.99218 2.16406,-26.38672 3.99219,-52.80469 5.96484,-79.20704 0.75391,-10.07031 1.85156,-20.12109 2.24219,-30.20312 0.17969,-4.72656 1.21484,-7.09375 6.48047,-6.61328 7.28906,0.66797 17.10547,-3.01172 21.26172,1.4375 4.03125,4.3164 -0.24219,13.78515 -0.6836,21 -0.96484,15.74219 -4.5039,31.27344 -3.80859,47.14453 -0.27734,0.16016 -0.55469,0.32031 -0.83203,0.48047 0.18359,0.0273 0.48437,0.1289 0.52734,0.0664 0.125,-0.1875 0.14063,-0.4414 0.20313,-0.66796"
       id="path842" />
    <path
       style="fill:#ee2b42;fill-opacity:1;fill-rule:nonzero;stroke:none"
       d="m 597.33203,602.23437 c -11.18359,0.004 -22.36719,-0.13671 -33.54687,0.0664 -4.75,0.0898 -6.03516,-0.93359 -4.80079,-6.08984 5.65625,-23.65235 5.47657,-23.69532 29.98829,-23.69532 16.36718,0 32.73437,0.19141 49.09375,-0.10937 5.46093,-0.10156 6.3125,1.44531 5.11328,6.57422 -5.42578,23.21875 -5.28516,23.25 -29.48438,23.25 -5.45312,0 -10.91015,0 -16.36328,0.004"
       id="path844" />
    <path
       style="fill:#ee2b42;fill-opacity:1;fill-rule:nonzero;stroke:none"
       d="m 586.60547,647.66797 c -11.46094,0.004 -22.92188,-0.17188 -34.37891,0.082 -5.03125,0.11328 -5.76172,-1.32813 -4.63281,-6.17578 5.48437,-23.51953 5.32812,-23.55469 29.20703,-23.55469 16.64844,0 33.29688,0.23438 49.93359,-0.12891 5.70704,-0.125 6.13282,1.64063 4.98047,6.58985 -5.375,23.15625 -5.24609,23.18359 -28.73828,23.18359 -5.45703,0 -10.91406,0 -16.37109,0.004"
       id="path846" />
    <path
       style="fill:#ee2b42;fill-opacity:1;fill-rule:nonzero;stroke:none"
       d="m 261.81641,653.77734 c -15.00782,0 -14.96485,0.0117 -10.95704,-14.625 5.10938,-18.64062 10.25,-37.27343 15.10938,-55.97656 1.14453,-4.41016 2.96875,-6.44922 7.78125,-6.07812 7.02734,0.54296 16.98047,-2.20704 20.38281,1.41796 3.78906,4.04297 -1.82031,12.97266 -3.45703,19.72657 -3.78125,15.60937 -8.28125,31.05468 -11.86719,46.70703 -1.51172,6.59375 -3.98828,10.26562 -11.27734,8.8789 -1.84375,-0.35156 -3.80859,-0.0508 -5.71484,-0.0508"
       id="path848" />
    <path
       style="fill:#ee2b42;fill-opacity:1;fill-rule:nonzero;stroke:none"
       d="m 608.80469,557.82422 c -10.90235,0 -21.81641,-0.2461 -32.71094,0.0977 -5.85547,0.1836 -6.62109,-1.51171 -5.21484,-7.04687 5.64843,-22.17969 5.4414,-22.23047 28.58593,-22.23047 16.35938,0 32.71875,0.19922 49.06641,-0.10937 5.58203,-0.10547 7.66016,0.625 6.04297,7.02343 -5.60156,22.20703 -5.375,22.26563 -28.59766,22.26563 -5.72265,0 -11.44922,0 -17.17187,0"
       id="path850" />
    <path
       style="fill:#ee2b42;fill-opacity:1;fill-rule:nonzero;stroke:none"
       d="m 280.11719,405.61719 c 0.21093,7.43359 -7.78516,12.4414 -14.375,8.8164 -2.08985,-1.15234 -3.83203,-3.03125 -5.53516,-4.76953 -17.57031,-17.91015 -35.10547,-35.85937 -52.64062,-53.80078 -1.52344,-1.55859 -3.04297,-3.12891 -4.5,-4.75 -4.26172,-4.74609 -5.03907,-9.93359 -0.26563,-14.48828 4.76172,-4.54297 9.97656,-3.65234 14.46484,0.90234 11.10157,11.26953 22.125,22.60938 33.17969,33.92578 8.38281,8.58204 16.74219,17.1875 25.16797,25.73438 2.35547,2.39062 4.34766,4.89844 4.50391,8.42969"
       id="path852" />
    <path
       style="fill:#ee2b42;fill-opacity:1;fill-rule:nonzero;stroke:none"
       d="m 586.96875,416.21484 c -3.91016,0.0742 -6.91016,-1.6875 -8.76563,-5 -1.85937,-3.3164 -1.90234,-6.91015 0.39063,-10.05468 1.75391,-2.41016 3.90625,-4.54688 5.99609,-6.6875 17.89844,-18.35157 35.78907,-36.71485 53.76563,-54.98829 6.1914,-6.29296 11.82031,-7 16.17578,-2.01171 5.07422,5.80859 2.76562,10.88281 -1.98828,15.72656 -18.91797,19.26562 -37.75,38.61328 -56.59766,57.9414 -2.50781,2.57422 -5.03906,5.04688 -8.97656,5.07422"
       id="path854" />
    <path
       style="fill:#ee2b42;fill-opacity:1;fill-rule:nonzero;stroke:none"
       d="m 236.84766,447.99219 c -0.26563,5.42578 -2.15625,8.32812 -5.64454,9.92578 -4.51562,2.07031 -8.5,0.85547 -11.89453,-2.61328 -11.07422,-11.30078 -22.15625,-22.59375 -33.21484,-33.91016 -8.57813,-8.78125 -17.11719,-17.60547 -25.68359,-26.39844 -4.63282,-4.7539 -6.10938,-9.98437 -0.96094,-15.05078 5.15625,-5.07422 10.3789,-3.50781 15.01562,1.23828 19.63672,20.10157 39.25782,40.21485 58.89453,60.3125 2.1875,2.24219 3.60157,4.77735 3.48829,6.4961"
       id="path856" />
    <path
       style="fill:#ee2b42;fill-opacity:1;fill-rule:nonzero;stroke:none"
       d="m 565.65234,394.9375 c -3.92578,0.082 -6.93359,-1.69531 -8.73828,-5.03125 -1.97265,-3.64844 -1.82031,-7.47656 0.95313,-10.71094 2.83593,-3.30469 5.95312,-6.3789 8.99609,-9.5 16.75781,-17.18359 33.55469,-34.32422 50.28125,-51.53515 4.67578,-4.8086 9.64844,-7.50391 15.64453,-2.4375 5.08594,4.29687 4.51172,9.96875 -1.59375,16.2539 -18.8125,19.36719 -37.69922,38.66016 -56.54687,57.9961 -2.51172,2.57031 -5.02344,5.07031 -8.9961,4.96484"
       id="path858" />
    <path
       style="fill:#ee2b42;fill-opacity:1;fill-rule:nonzero;stroke:none"
       d="m 258.33984,425.75 c -0.37109,6.51562 -2.48047,9.50781 -6.39843,11.03516 -4.31641,1.68359 -7.99219,0.34375 -11.13282,-2.85938 -11.07031,-11.30078 -22.16015,-22.58594 -33.21875,-33.90234 -8.57812,-8.77735 -17.12109,-17.59375 -25.67578,-26.39063 -4.58984,-4.72265 -6.24219,-9.91797 -1.07812,-15.05078 5.13672,-5.10937 10.35547,-3.60547 15,1.14844 19.64062,20.09375 39.26172,40.20312 58.89062,60.30078 2.17578,2.22656 3.69531,4.72656 3.61328,5.71875"
       id="path860" />
    <path
       style="fill:#ee2b42;fill-opacity:1;fill-rule:nonzero;stroke:none"
       d="m 301.35547,384.25 c 0.30859,7.43359 -7.625,12.55859 -14.2461,9.00781 -2.10156,-1.1289 -3.86718,-2.98828 -5.57031,-4.72656 -18.32812,-18.69922 -36.61328,-37.44141 -54.91015,-56.17188 -0.76563,-0.78125 -1.54297,-1.54687 -2.26954,-2.35937 -4.19921,-4.73047 -5.14843,-9.89844 -0.41015,-14.52734 4.70703,-4.59375 9.95703,-3.84766 14.46875,0.70703 9.59765,9.68359 19.07812,19.49218 28.60937,29.24609 9.71875,9.94922 19.4336,19.91016 29.17188,29.83984 2.51172,2.5586 4.99609,5.08985 5.15625,8.98438"
       id="path862" />
    <path
       style="fill:#ee2b42;fill-opacity:1;fill-rule:nonzero;stroke:none"
       d="m 669.03125,356.18359 c 7.09766,-0.26953 12.10937,7.01953 9.25781,13.53907 -0.53906,1.22656 -1.29297,2.4414 -2.22265,3.39453 -20.15625,20.70312 -40.26172,41.45703 -60.61719,61.96093 -4.1875,4.21485 -9.58203,4.23438 -13.8711,-0.14843 -4.32031,-4.41797 -3.91406,-9.55469 0.26563,-13.8711 19.91406,-20.5625 39.96094,-40.98828 59.95703,-61.46875 1.99219,-2.04297 4.40625,-3.14843 7.23047,-3.40625"
       id="path864" />
    <path
       style="fill:#ee2b42;fill-opacity:1;fill-rule:nonzero;stroke:none"
       d="m 630.31641,459.39844 c -3.83204,-0.0234 -6.92188,-1.4961 -8.83594,-4.88672 -1.89844,-3.36328 -1.91797,-6.89453 0.33203,-10.03906 1.73047,-2.41797 3.89453,-4.53907 5.98047,-6.6836 17.30078,-17.76953 34.6289,-35.51562 51.94922,-53.26953 0.3789,-0.38672 0.7539,-0.78516 1.14062,-1.16797 6.46094,-6.42187 12.42188,-7.375 16.94531,-2.71094 4.42188,4.55469 3.65625,9.89454 -2.58593,16.3125 -17.29297,17.77735 -34.64453,35.5 -51.97657,53.24219 -2.09375,2.14453 -4.1914,4.28516 -6.32031,6.39844 -1.82812,1.80859 -4.10547,2.61719 -6.6289,2.80469"
       id="path866" />
    <path
       style="fill:#231c21;fill-opacity:1;fill-rule:nonzero;stroke:none"
       d="m 472.04687,691.34375 c 7.82422,0.82031 5.89844,-5.53125 6.9375,-9.32813 0.44532,-1.6289 3.10547,-5.08203 -1.47265,-5.46093 -2.99219,-0.25 -6.77344,-1.35547 -7.72656,3.47265 -0.41797,2.11719 -1.00391,4.20703 -1.64063,6.26563 -1.17969,3.83203 -0.17187,5.77734 3.90234,5.05078 m 4.15625,-25.51953 c 2.45704,0.0117 4.91797,-0.0742 7.375,0.0312 4.28907,0.17578 6.78516,2.20312 5.94141,6.76953 -1.92969,10.44922 -4.07812,20.86328 -6.01172,31.3125 -0.6914,3.72266 -3.1875,3.80469 -6.09765,3.65625 -3.3711,-0.17578 -3.16797,-2.37109 -2.66797,-4.60938 0.44531,-2.0039 0.98047,-4.09375 -1.98828,-4.04296 -2.76954,0.043 -6.11719,-1.61719 -8.09375,1.80859 -0.66797,1.15625 -0.9336,2.55859 -1.32813,3.86328 -1.4375,4.74609 -5.40234,3.10547 -8.22656,2.72656 -3.94922,-0.52734 -2.01172,-3.74218 -1.46094,-5.80859 2.09766,-7.89453 4.45313,-15.72266 6.64844,-23.59766 3.375,-12.11328 3.35547,-12.11718 15.91015,-12.10937"
       id="path868" />
    <path
       style="fill:#231c21;fill-opacity:1;fill-rule:nonzero;stroke:none"
       d="m 559.99219,690.33594 c 9.1875,3.88672 11.51562,-1.29688 12.23047,-8.38672 0.20312,-2.00781 2.39453,-5.11719 -2.03907,-5.48438 -11.47265,-0.94922 -6.60547,9.34375 -10.1914,13.8711 m 22.60547,-17.40625 c -1.9336,9.85547 -4.08594,20.54297 -6.09375,31.2539 -0.6211,3.32422 -2.84375,3.40235 -5.45704,3.44532 -3.09375,0.0469 -3.64843,-1.53516 -3.28125,-4.16016 0.28907,-2.05078 1.23438,-4.76953 -2.41796,-4.62891 -3.01172,0.11328 -6.80469,-1.48828 -8.20704,3.14063 -0.53515,1.76953 -0.27734,4.1289 -2.26171,5.03125 -2.53516,1.14844 -5.59766,1.26953 -7.91407,0.11719 -2.57812,-1.28125 -0.6914,-3.98829 -0.18359,-5.89844 2.59375,-9.72656 5.48828,-19.3711 8.08984,-29.09766 1.14844,-4.28906 3.40625,-6.55859 8.0625,-6.35547 4.62891,0.20703 9.28125,-0.0469 13.91407,0.1211 3.8164,0.13672 6.1875,1.94531 5.75,7.03125"
       id="path870" />
    <path
       style="fill:#231c21;fill-opacity:1;fill-rule:nonzero;stroke:none"
       d="m 384.50391,665.90625 c 2.72656,0 5.46875,-0.18359 8.17968,0.043 3.5625,0.29297 5.625,2.36719 4.98047,6.01953 -1.89062,10.73047 -4.01562,21.41797 -5.99609,32.12891 -0.69531,3.75 -3.40235,3.71093 -6.22266,3.45703 -4.16797,-0.375 -2.6875,-3.11328 -2.21875,-5.42969 1.35156,-6.67969 2.83203,-13.33594 3.94141,-20.05469 0.3164,-1.91797 2.48437,-5.25 -1.94141,-5.53906 -3.10547,-0.20703 -6.54687,-1.05078 -7.52344,3.875 -1.42968,7.20312 -3.75781,14.23828 -5.125,21.45312 -1.02343,5.42579 -4.33984,6.65235 -8.77343,5.6211 -5.73828,-1.32813 -1.86719,-5.11719 -1.26563,-7.66797 1.75,-7.41797 3.81641,-14.76563 5.91406,-22.09375 3.41016,-11.91797 3.46094,-11.90625 16.05079,-11.8125"
       id="path872" />
    <path
       style="fill:#ee2b42;fill-opacity:1;fill-rule:nonzero;stroke:none"
       d="m 282.25781,426.89844 c -0.14062,-2.96094 1.66406,-5.3125 3.81641,-7.46875 6.91015,-6.92578 13.8125,-13.85547 20.76562,-20.73828 4.74219,-4.69532 10.01563,-5.86719 14.99219,-0.76954 4.65625,4.76954 3.61328,9.9336 -0.79687,14.42188 -7.23829,7.36328 -14.55469,14.65234 -21.95313,21.85547 -3.17187,3.09375 -6.98828,4.17578 -11.20703,2.14062 -3.76953,-1.82031 -5.75391,-4.83984 -5.61719,-9.4414"
       id="path874" />
    <path
       style="fill:#ee2b42;fill-opacity:1;fill-rule:nonzero;stroke:none"
       d="m 574.73828,427.26172 c 0.0117,4.66015 -1.71875,7.6875 -5.17187,9.39062 -3.69532,1.82422 -7.69922,1.78907 -10.73829,-1.125 -8.27343,-7.9414 -16.5039,-15.95312 -24.28906,-24.37109 -3.5625,-3.85156 -3.09765,-8.72656 0.53516,-12.64453 3.33203,-3.59375 7.94531,-4.90235 11.80078,-1.72656 9.69141,7.98828 18.40234,17.07421 26.66016,26.54296 0.96484,1.10547 0.95703,3.0586 1.20312,3.9336"
       id="path876" />
    <path
       style="fill:#231c21;fill-opacity:1;fill-rule:nonzero;stroke:none"
       d="m 551.23437,665.81641 c -1.23046,9.5 -7.22656,9.01171 -13.42968,8.99218 -3.56641,-0.0117 -8.89453,-2.28515 -10.49219,1.61328 -2.53906,6.1875 -3.29688,13.14063 -4.47656,19.82813 -0.30078,1.70703 1.75,1.64062 3.05078,1.66016 3.27344,0.043 6.58984,-0.32032 9.79297,0.14453 2.0625,0.30078 6.34375,-2.39453 5.79297,2.64453 -0.33985,3.14062 -0.52344,7.21094 -5.91407,6.96875 -7.34375,-0.33203 -14.71484,-0.22656 -22.0664,-0.0273 -3.9336,0.10938 -5.49219,-0.88671 -4.35547,-5.125 2.82031,-10.50781 5.39453,-21.07812 7.99609,-31.64062 0.78516,-3.19141 1.94531,-5.26563 5.92969,-5.14453 9.21875,0.27734 18.44922,0.0859 28.17187,0.0859"
       id="path878" />
    <path
       style="fill:#231c21;fill-opacity:1;fill-rule:nonzero;stroke:none"
       d="m 313.23047,665.81641 c 13.49609,0 12.96094,-0.10938 10.25,13.08203 -1.69922,8.28906 -4.91016,12.89453 -13.85547,11.02343 -8.33203,-1.73828 -9.46875,3.82422 -10.07813,9.77735 -0.51953,5.12109 -1.66406,8.76562 -8.27343,8.0625 -3.8125,-0.40625 -4.78516,-1.54297 -3.89844,-4.94922 1.30078,-4.99609 2.68359,-9.97656 3.82422,-15.00781 0.77734,-3.42578 2.41406,-5.02344 6.16797,-4.72266 4.05468,0.32813 8.16015,0.14844 12.23437,0.008 3.20703,-0.11328 4.01172,-2.65625 3.99219,-5.13281 -0.0234,-3.02344 -2.6875,-1.89844 -4.35938,-2.07031 -1.61328,-0.16406 -3.33593,0.26953 -4.875,-0.10547 -2.13671,-0.52344 -6.30859,2.10937 -5.92187,-2.62109 0.25781,-3.17969 0.67187,-7.44532 5.81641,-7.35547 2.99218,0.0547 5.98437,0.0117 8.97656,0.0117"
       id="path880" />
    <path
       style="fill:#231c21;fill-opacity:1;fill-rule:nonzero;stroke:none"
       d="m 609.48437,665.81641 c 13.36329,0 12.86719,-0.10547 9.96485,13.41406 -1.6875,7.87109 -4.60938,12.35547 -13.25391,10.6914 -7.63672,-1.46875 -9.96484,2.67969 -10.57812,9.37891 -0.27344,2.96875 0.27343,7.13281 -3.84766,8.0625 -2.51953,0.56641 -5.82812,0.63281 -7.91797,-0.57422 -2.76562,-1.60156 0.53906,-4.30078 0.39844,-6.61719 -0.0664,-1.01953 0.58203,-2.07812 0.86719,-3.1289 3.60937,-13.34766 3.60547,-13.51172 17.76953,-13.77735 3.86719,-0.0703 6.96875,-1.04687 6.93359,-4.91015 -0.0351,-4.40625 -4.15234,-1.76953 -6.38672,-2.49219 -0.24609,-0.082 -0.57422,0.0742 -0.80859,-0.0234 -2.75,-1.14843 -8.08203,2.75 -8.1875,-2.88281 -0.0977,-5.16016 3.37891,-8.32422 9.32422,-7.19531 1.84375,0.34765 3.8125,0.0547 5.72265,0.0547"
       id="path882" />
    <path
       style="fill:#231c21;fill-opacity:1;fill-rule:nonzero;stroke:none"
       d="m 412.85547,703.0625 c -3.9375,0.41016 -5.57031,-0.46875 -4.55469,-4.48828 1.73047,-6.82813 3.00781,-13.76953 4.44922,-20.66406 0.34766,-1.66016 2.00781,-3.92579 -1.35156,-4.2461 -2.2461,-0.21484 -3.73438,-0.49609 -2.85157,-3.32422 0.78125,-2.5039 1.73829,-4.54687 4.85547,-4.51562 5.16016,0.0469 10.32422,-0.082 15.48438,0.043 1.6289,0.0391 4.42969,-0.96875 4.21875,2.05078 -0.13672,1.95312 -0.85156,5.36719 -2.95313,5.23437 -7.25781,-0.46093 -6.41406,5.40625 -7.72265,9.27735 -1.82422,5.3789 -2.98438,10.98047 -4.40235,16.49609 -0.76172,2.94922 -2.0039,5.20313 -5.17187,4.13672"
       id="path884" />
    <path
       style="fill:#231c21;fill-opacity:1;fill-rule:nonzero;stroke:none"
       d="m 350.50781,665.82422 c 2.4336,-0.0117 4.89844,-0.24219 7.29297,0.0586 2.23047,0.28125 6.35938,-1.66406 5.91406,2.73047 -0.35937,3.51172 -0.21484,8.49609 -6.65625,7.92578 -5.63672,-0.49609 -11.35156,0.0391 -17.02343,-0.17578 -1.96875,-0.0742 -5.73438,1.61719 -5.08985,-2.73047 0.46094,-3.09375 -0.21094,-7.59375 5.01953,-7.77734 3.51172,-0.125 7.02735,-0.0234 10.54297,-0.0312"
       id="path886" />
    <path
       style="fill:#231c21;fill-opacity:1;fill-rule:nonzero;stroke:none"
       d="m 339.42187,707.59375 c -2.18359,-0.008 -4.41406,0.26953 -6.53906,-0.0859 -2.20703,-0.36719 -6.45703,1.91406 -5.89844,-2.83203 0.38282,-3.25391 0.0352,-8.06641 6.02344,-7.77734 5.99219,0.29297 12.01563,-0.043 18.01563,0.125 1.82422,0.0508 5.4375,-1.09766 4.67578,2.34765 -0.64453,2.92969 0.50781,7.8711 -4.8125,8.19141 -3.8086,0.22656 -7.64453,0.043 -11.46485,0.0312"
       id="path888" />
    <path
       style="fill:#231c21;fill-opacity:1;fill-rule:nonzero;stroke:none"
       d="m 331.0625,691.60547 c -0.61328,-8.08203 2.17969,-11.71094 10.24609,-10.5586 4.26172,0.61329 8.69532,-0.0781 13.02735,0.19141 1.97265,0.125 5.7539,-1.65234 5.23828,2.625 -0.36719,3.08594 0.2539,7.66016 -5.03906,7.72266 -7.84375,0.0898 -15.69532,0.0195 -23.47266,0.0195"
       id="path890" />
    <path
       style="fill:#231c21;fill-opacity:1;fill-rule:nonzero;stroke:none"
       d="m 607.76953,707.65625 c -3.49609,0.39844 -3.72266,-2.89453 -4.4375,-5.82813 -0.69141,-2.82031 1.04688,-3.1289 3.13281,-3.3789 4.33594,-0.51953 4.81641,2.6289 5.40235,5.60937 0.49218,2.51953 -0.96485,3.4375 -4.09766,3.59766"
       id="path892" />
    <path
       style="fill:#231c21;fill-opacity:1;fill-rule:nonzero;stroke:none"
       d="m 315.40625,703.14062 c 0.56641,3.10938 -0.22656,4.46094 -3.25781,4.5 -3.90625,0.0469 -4.1211,-2.96484 -4.875,-5.42187 -0.92188,-3.00781 0.91406,-3.75781 3.53125,-3.78906 3.58984,-0.043 4.84375,1.875 4.60156,4.71093"
       id="path894" />
  </g>
</svg>
