<?xml version="1.0" encoding="UTF-8" standalone="no"?>
<!-- Created with Inkscape (http://www.inkscape.org/) -->

<svg
   xmlns:dc="http://purl.org/dc/elements/1.1/"
   xmlns:cc="http://creativecommons.org/ns#"
   xmlns:rdf="http://www.w3.org/1999/02/22-rdf-syntax-ns#"
   xmlns:svg="http://www.w3.org/2000/svg"
   xmlns="http://www.w3.org/2000/svg"
   xmlns:sodipodi="http://sodipodi.sourceforge.net/DTD/sodipodi-0.dtd"
   xmlns:inkscape="http://www.inkscape.org/namespaces/inkscape"
   width="100"
   height="100"
   viewBox="0 0 26.458333 26.458334"
   version="1.1"
   id="svg8"
   inkscape:version="0.92.3 (2405546, 2018-03-11)"
   sodipodi:docname="tres.svg">
  <defs
     id="defs2" />
  <sodipodi:namedview
     id="base"
     pagecolor="#ffffff"
     bordercolor="#666666"
     borderopacity="1.0"
     inkscape:pageopacity="0.0"
     inkscape:pageshadow="2"
     inkscape:zoom="4"
     inkscape:cx="7.636769"
     inkscape:cy="45.121199"
     inkscape:document-units="mm"
     inkscape:current-layer="layer1"
     showgrid="false"
     units="px"
     inkscape:window-width="1366"
     inkscape:window-height="717"
     inkscape:window-x="0"
     inkscape:window-y="25"
     inkscape:window-maximized="1" />
  <metadata
     id="metadata5">
    <rdf:RDF>
      <cc:Work
         rdf:about="">
        <dc:format>image/svg+xml</dc:format>
        <dc:type
           rdf:resource="http://purl.org/dc/dcmitype/StillImage" />
        <dc:title />
      </cc:Work>
    </rdf:RDF>
  </metadata>
  <g
     inkscape:label="Capa 1"
     inkscape:groupmode="layer"
     id="layer1"
     transform="translate(0,-270.54165)">
    <g
       id="g821">
      <path
         inkscape:connector-curvature="0"
         id="path1119"
         d="m 13.229167,270.54166 a 13.229166,13.229166 0 0 0 -1.738912,0.12919 l 0.447001,1.94407 a 11.244791,11.244791 0 0 1 1.291911,-0.0889 11.244791,11.244791 0 0 1 11.244791,11.2448 11.244791,11.244791 0 0 1 -0.903304,4.4111 l 1.928565,0.51624 a 13.229166,13.229166 0 0 0 0.959114,-4.92734 13.229166,13.229166 0 0 0 -13.229166,-13.22917 z m -4.6741337,0.87023 a 13.229166,13.229166 0 0 0 -7.87703835,8.23051 l 1.91254475,0.52141 a 11.244791,11.244791 0 0 1 6.4207967,-6.8094 z M 0.05994483,282.61276 A 13.229166,13.229166 0 0 0 1.6666666e-7,283.77083 13.229166,13.229166 0 0 0 13.229167,296.99999 a 13.229166,13.229166 0 0 0 3.998205,-0.62321 l -0.445451,-1.95182 a 11.244791,11.244791 0 0 1 -3.552754,0.59066 11.244791,11.244791 0 0 1 -11.2447919,-11.24479 11.244791,11.244791 0 0 1 0.032039,-0.63821 z M 22.52524,290.09447 a 11.244791,11.244791 0 0 1 -3.783748,3.46181 l 0.466121,1.99987 a 13.229166,13.229166 0 0 0 5.312337,-4.91391 z"
         style="fill:#ffffff;fill-opacity:1;stroke:none;stroke-width:7.00000048;stroke-miterlimit:4;stroke-dasharray:none;stroke-opacity:1" />
      <g
         id="text1191"
         style="font-style:normal;font-variant:normal;font-weight:normal;font-stretch:normal;font-size:23.42274475px;line-height:1.25;font-family:'Mitra Mono';-inkscape-font-specification:'Mitra Mono';letter-spacing:0px;word-spacing:0px;fill:#ffffff;fill-opacity:1;stroke:none;stroke-width:0.58556861"
         aria-label="3">
        <path
           id="path815"
           style="font-style:normal;font-variant:normal;font-weight:normal;font-stretch:normal;font-family:'Mitra Mono';-inkscape-font-specification:'Mitra Mono';fill:#ffffff;stroke-width:0.58556861"
           d="m 8.8411641,286.75013 1.7384069,-0.24018 q 0.297359,1.4868 1.017883,2.1387 0.731961,0.6519 1.749844,0.6519 1.235183,0 2.081513,-0.84633 0.84633,-0.85776 0.84633,-2.11582 0,-1.20087 -0.789145,-1.97858 -0.777709,-0.77771 -1.990019,-0.77771 -0.480349,0 -1.21231,0.19443 l 0.18299,-1.52111 q 0.182991,0.0114 0.285922,0.0114 1.109379,0 1.990019,-0.57185 0.892077,-0.58328 0.892077,-1.79559 0,-0.94926 -0.651903,-1.57829 -0.640465,-0.62903 -1.658348,-0.62903 -1.02932,0 -1.704096,0.64047 -0.674777,0.62903 -0.857767,1.9214 l -1.7498436,-0.33167 q 0.3316697,-1.73841 1.4524846,-2.69911 1.132252,-0.9607 2.813474,-0.9607 1.155126,0 2.138698,0.50322 0.983572,0.49179 1.486795,1.34956 0.51466,0.85776 0.51466,1.8299 0,0.91495 -0.491786,1.66978 -0.491786,0.75484 -1.452484,1.20088 1.258057,0.28592 1.955707,1.20087 0.69765,0.91495 0.69765,2.27594 0,1.86421 -1.360989,3.15658 -1.349553,1.28093 -3.419629,1.28093 -1.87565,0 -3.110834,-1.09794 -1.2237466,-1.10938 -1.3952999,-2.88209 z" />
      </g>
    </g>
  </g>
</svg>
